<svg width="40" height="40" viewBox="0 0 40 40" fill="none" xmlns="http://www.w3.org/2000/svg">
<path d="M0 7C0 3.13401 3.13402 0 7.00002 0H33.0001C36.8661 0 40.0001 3.13401 40.0001 7V33C40.0001 36.866 36.8661 40 33.0001 40H7.00002C3.13402 40 0 36.866 0 33V7Z" fill="#6E76F1"/>
<path fill-rule="evenodd" clip-rule="evenodd" d="M32.5375 13.7089H28.5486C26.6072 11.1336 23.5031 9.46473 20.0088 9.46473C14.1326 9.46473 9.36219 14.183 9.36219 19.994C9.36219 25.8055 14.1326 30.5233 20.0088 30.5233C23.5031 30.5233 26.6072 28.8544 28.5486 26.2796H32.5375C30.2163 30.7924 25.475 33.8869 20.0088 33.8869C12.2556 33.8869 5.96143 27.662 5.96143 19.994C5.96143 12.3265 12.2556 6.10156 20.0088 6.10156C25.475 6.10156 30.2163 9.19614 32.5375 13.7089ZM23.3517 20.6144C23.0569 22.1751 21.6713 23.3576 20.0088 23.3576C18.1314 23.3576 16.6076 21.8506 16.6076 19.994C16.6076 18.1379 18.1314 16.6308 20.0088 16.6308C21.6713 16.6308 23.0569 17.8134 23.3517 19.3741H40.0001V20.6144H23.3517Z" fill="white"/>
</svg>
